<svg width="100" height="44" viewBox="0 0 112 49" fill="none" xmlns="http://www.w3.org/2000/svg">
<path d="M28.248 30.552V31H23.864V30.552L24.744 30.44C24.9147 30.4187 25.016 30.376 25.048 30.312C25.08 30.2373 25.096 30.0187 25.096 29.656V21.432L22.168 29.72H20.456L17.56 21.48V29.656C17.56 30.0187 17.576 30.2373 17.608 30.312C17.64 30.376 17.7413 30.4187 17.912 30.44L18.792 30.552V31H15.688V30.552L16.568 30.44C16.7387 30.4187 16.84 30.376 16.872 30.312C16.904 30.2373 16.92 30.0187 16.92 29.656V21.464C16.92 21.1013 16.904 20.888 16.872 20.824C16.84 20.7493 16.7387 20.7013 16.568 20.68L15.688 20.568V20.12H19.064L21.992 28.44L24.968 20.12H28.248V20.568L27.368 20.68C27.1973 20.7013 27.096 20.7493 27.064 20.824C27.032 20.888 27.016 21.1013 27.016 21.464V29.656C27.016 30.0187 27.032 30.2373 27.064 30.312C27.096 30.376 27.1973 30.4187 27.368 30.44L28.248 30.552ZM38.6655 25.048V26.056C38.6655 27.6987 38.2975 28.9627 37.5615 29.848C36.8362 30.7227 35.7588 31.16 34.3295 31.16C32.9002 31.16 31.8175 30.7227 31.0815 29.848C30.3562 28.9627 29.9935 27.6987 29.9935 26.056V25.048C29.9935 23.4053 30.3562 22.1467 31.0815 21.272C31.8175 20.3973 32.9002 19.96 34.3295 19.96C35.7588 19.96 36.8362 20.3973 37.5615 21.272C38.2975 22.1467 38.6655 23.4053 38.6655 25.048ZM36.6175 24.248C36.6175 23.3093 36.5375 22.5733 36.3775 22.04C36.2175 21.496 35.9668 21.1067 35.6255 20.872C35.2948 20.6373 34.8628 20.52 34.3295 20.52C33.8068 20.52 33.3748 20.6373 33.0335 20.872C32.6922 21.1067 32.4415 21.496 32.2815 22.04C32.1215 22.5733 32.0415 23.3093 32.0415 24.248V26.856C32.0415 27.784 32.1215 28.52 32.2815 29.064C32.4415 29.608 32.6922 30.0027 33.0335 30.248C33.3748 30.4827 33.8068 30.6 34.3295 30.6C34.8628 30.6 35.2948 30.4827 35.6255 30.248C35.9668 30.0027 36.2175 29.608 36.3775 29.064C36.5375 28.52 36.6175 27.784 36.6175 26.856V24.248ZM48.0184 21.464L44.9944 31H43.6184L40.5784 21.464C40.5037 21.2187 40.445 21.048 40.4024 20.952C40.3597 20.8453 40.3117 20.776 40.2584 20.744C40.205 20.712 40.1197 20.6907 40.0024 20.68L39.1224 20.568V20.12H43.5704V20.568L42.6904 20.68C42.5197 20.7013 42.429 20.7493 42.4184 20.824C42.4077 20.888 42.4557 21.1013 42.5624 21.464L44.9944 29.096L47.3944 21.464C47.5117 21.1013 47.5597 20.888 47.5384 20.824C47.5277 20.7493 47.437 20.7013 47.2664 20.68L46.3864 20.568V20.12H49.4584V20.568L48.5784 20.68C48.4717 20.6907 48.3917 20.712 48.3384 20.744C48.285 20.776 48.237 20.8453 48.1944 20.952C48.1517 21.048 48.093 21.2187 48.0184 21.464ZM50.0318 20.568V20.12H54.4158V20.568L53.5358 20.68C53.3651 20.7013 53.2638 20.7493 53.2318 20.824C53.1998 20.888 53.1838 21.1013 53.1838 21.464V29.656C53.1838 30.0187 53.1998 30.2373 53.2318 30.312C53.2638 30.376 53.3651 30.4187 53.5358 30.44L54.4158 30.552V31H50.0318V30.552L50.9118 30.44C51.0824 30.4187 51.1838 30.376 51.2158 30.312C51.2478 30.2373 51.2638 30.0187 51.2638 29.656V21.464C51.2638 21.1013 51.2478 20.888 51.2158 20.824C51.1838 20.7493 51.0824 20.7013 50.9118 20.68L50.0318 20.568ZM63.2694 28.248H63.7174V31H55.7974V30.552L56.6774 30.44C56.848 30.4187 56.9494 30.376 56.9814 30.312C57.0134 30.2373 57.0294 30.0187 57.0294 29.656V21.464C57.0294 21.1013 57.0134 20.888 56.9814 20.824C56.9494 20.7493 56.848 20.7013 56.6774 20.68L55.7974 20.568V20.12H63.5574V22.872H63.1094L62.5974 21.096C62.5654 20.968 62.528 20.8773 62.4854 20.824C62.4534 20.76 62.384 20.7227 62.2774 20.712C62.1707 20.6907 61.9894 20.68 61.7334 20.68H58.9494V25.224H60.7734C61.0294 25.224 61.2107 25.2187 61.3174 25.208C61.424 25.1867 61.4934 25.1493 61.5254 25.096C61.568 25.032 61.6054 24.936 61.6374 24.808L61.9894 23.512H62.4374V27.496H61.9894L61.6374 26.2C61.6054 26.072 61.568 25.9813 61.5254 25.928C61.4934 25.864 61.424 25.8267 61.3174 25.816C61.2107 25.7947 61.0294 25.784 60.7734 25.784H58.9494V30.44H61.8934C62.1494 30.44 62.3307 30.4347 62.4374 30.424C62.544 30.4027 62.6134 30.3653 62.6454 30.312C62.688 30.248 62.7254 30.152 62.7574 30.024L63.2694 28.248ZM64.9913 25.928V25.368H69.2153V25.928H64.9913ZM71.8826 30.552V31H68.7946V30.552L69.6746 30.44C69.792 30.4187 69.8773 30.3973 69.9306 30.376C69.984 30.344 70.032 30.2747 70.0746 30.168C70.1173 30.0613 70.176 29.8907 70.2506 29.656L73.3066 20.12H74.6826L77.7546 29.656C77.8293 29.8907 77.888 30.0613 77.9306 30.168C77.9733 30.2747 78.0213 30.344 78.0746 30.376C78.1386 30.3973 78.224 30.4187 78.3306 30.44L79.2106 30.552V31H74.7946V30.552L75.6746 30.44C75.8453 30.4187 75.936 30.376 75.9466 30.312C75.968 30.2373 75.92 30.0187 75.8026 29.656L75.1946 27.672H71.4986L70.8746 29.656C70.768 30.0187 70.72 30.2373 70.7306 30.312C70.7413 30.376 70.832 30.4187 71.0026 30.44L71.8826 30.552ZM71.6906 27.112H75.0186L73.3706 21.8L71.6906 27.112ZM79.7974 20.568V20.12H84.6134C85.7867 20.12 86.6614 20.392 87.2374 20.936C87.824 21.4693 88.1174 22.184 88.1174 23.08V23.448C88.1174 24.344 87.824 25.064 87.2374 25.608C86.6614 26.152 85.7867 26.424 84.6134 26.424H82.9494V29.656C82.9494 30.0187 82.9654 30.2373 82.9974 30.312C83.0294 30.376 83.1307 30.4187 83.3014 30.44L84.5014 30.552V31H79.7974V30.552L80.6774 30.44C80.848 30.4187 80.9494 30.376 80.9814 30.312C81.0134 30.2373 81.0294 30.0187 81.0294 29.656V21.464C81.0294 21.1013 81.0134 20.888 80.9814 20.824C80.9494 20.7493 80.848 20.7013 80.6774 20.68L79.7974 20.568ZM84.6134 20.68H82.9494V25.864H84.6134C85.0827 25.864 85.44 25.6773 85.6854 25.304C85.9414 24.9307 86.0694 24.4187 86.0694 23.768V22.76C86.0694 22.1093 85.9414 21.6027 85.6854 21.24C85.44 20.8667 85.0827 20.68 84.6134 20.68ZM89.3599 20.568V20.12H94.1759C95.3492 20.12 96.2239 20.392 96.7999 20.936C97.3865 21.4693 97.6799 22.184 97.6799 23.08V23.448C97.6799 24.344 97.3865 25.064 96.7999 25.608C96.2239 26.152 95.3492 26.424 94.1759 26.424H92.5119V29.656C92.5119 30.0187 92.5279 30.2373 92.5599 30.312C92.5919 30.376 92.6932 30.4187 92.8639 30.44L94.0639 30.552V31H89.3599V30.552L90.2399 30.44C90.4105 30.4187 90.5119 30.376 90.5439 30.312C90.5759 30.2373 90.5919 30.0187 90.5919 29.656V21.464C90.5919 21.1013 90.5759 20.888 90.5439 20.824C90.5119 20.7493 90.4105 20.7013 90.2399 20.68L89.3599 20.568ZM94.1759 20.68H92.5119V25.864H94.1759C94.6452 25.864 95.0025 25.6773 95.2479 25.304C95.5039 24.9307 95.6319 24.4187 95.6319 23.768V22.76C95.6319 22.1093 95.5039 21.6027 95.2479 21.24C95.0025 20.8667 94.6452 20.68 94.1759 20.68Z" fill="black"/>
<rect x="1" y="1" width="110" height="47" rx="23.5" stroke="#D4D0E7" stroke-width="2"/>
</svg>
